<svg width="15.528" height="12.3" stroke-miterlimit="10" style="fill-rule:nonzero;clip-rule:evenodd;stroke-linecap:round;stroke-linejoin:round;" version="1.1" viewBox="0 0 572 453" xml:space="preserve" xmlns="http://www.w3.org/2000/svg" xmlns:xlink="http://www.w3.org/1999/xlink">
  <path d="M52 153C56.6667 125 74.6667 92.6667 106 56C137.333 19.3333 176 0.666667 222 0C245.333 0 266.667 6 286 18C305.333 30 319.667 45 329 63C357 21 390.667 0 430 0C454.667 0 476 7.33333 494 22C512 36.6667 521.333 56.3333 522 81C522 100.333 517.333 116 508 128C498.667 140 489.667 147.333 481 150C472.333 152.667 464.667 154 458 154C445.333 154 435 150.333 427 143C419 135.667 415 126 415 114C415 83.3333 431.667 62.3333 465 51C457.667 42.3333 444.333 38 425 38C416.333 38 410 38.6667 406 40C380.667 50.6667 362 72.6667 350 106C310 253.333 290 339.333 290 364C290 382.667 295.333 396 306 404C316.667 412 328.333 416 341 416C365.667 416 390 405 414 383C438 361 454.333 334 463 302C465 295.333 467 291.667 469 291C471 290.333 476.333 289.667 485 289L489 289C499 289 504 291.667 504 297C504 297.667 503.333 301.333 502 308C491.333 346 470.667 379.667 440 409C409.333 438.333 373.667 453 333 453C286.333 453 251 432 227 390C199.667 431.333 168.333 452 133 452L127 452C94.3333 452 71 443.333 57 426C43 408.667 35.6667 390.333 35 371C35 349.667 41.3333 332.333 54 319C66.6667 305.667 81.6667 299 99 299C127.667 299 142 313 142 341C142 354.333 138 366 130 376C122 386 114.333 392.667 107 396C99.6667 399.333 95.3333 401 94 401L91 402C91 402.667 93 404 97 406C101 408 106.333 410.333 113 413C119.667 415.667 126 416.667 132 416C156 416 176.667 401 194 371C200 360.333 207.667 337.667 217 303C226.333 268.333 235.667 232.333 245 195C254.333 157.667 259.667 135.667 261 129C264.333 111 266 98 266 90C266 71.3333 261 58 251 50C241 42 229.667 38 217 38C190.333 38 165.333 48.6667 142 70C118.667 91.3333 102.333 118.667 93 152C91.6667 158 90 161.333 88 162C86 162.667 80.6667 163.333 72 164L58 164C54 160 52 156.333 52 153Z" fill="currentColor" fill-rule="evenodd" opacity="1" stroke="currentColor" stroke-linecap="butt" stroke-linejoin="miter" stroke-width="0"/>
</svg>
