<svg width="13.308" height="17.568" stroke-miterlimit="10" style="fill-rule:nonzero;clip-rule:evenodd;stroke-linecap:round;stroke-linejoin:round;" version="1.1" viewBox="0 0 490 647" xml:space="preserve" xmlns="http://www.w3.org/2000/svg" xmlns:xlink="http://www.w3.org/1999/xlink">
  <path d="M21 155C21 145.667 26 129.667 36 107C46 84.3333 62 60.6667 84 36C106 11.3333 130.667-0.666667 158 0C185.333 0 207.333 7.66667 224 23C240.667 38.3333 249.333 59.6667 250 87C248.667 99.6667 247.667 106.667 247 108C247 110 241.667 125.333 231 154C220.333 182.667 209.333 215 198 251C186.667 287 181.333 315.667 182 337C182 365.667 186.667 385.667 196 397C205.333 408.333 219.333 414.333 238 415C253.333 415 267.667 411.333 281 404C294.333 396.667 304.667 389 312 381C319.333 373 328.333 362 339 348C339 347.333 340.667 340.667 344 328C347.333 315.333 352 295.667 358 269C364 242.333 370.333 217.667 377 195C402.333 95 416.333 42.6667 419 38C427.667 20 442 11 462 11C470.667 11 477.667 13.3333 483 18C488.333 22.6667 492 26.6667 494 30C496 33.3333 496.667 36.3333 496 39C496 47.6667 479.667 117.667 447 249C414.333 380.333 395.667 452.333 391 465C372.333 520.333 340 564.333 294 597C248 629.667 202 646.333 156 647C126 647 99.6667 639.667 77 625C54.3333 610.333 43 588.333 43 559C43 544.333 45.3333 532 50 522C54.6667 512 61 504.667 69 500C77 495.333 83.6667 492 89 490C94.3333 488 100 487 106 487C135.333 487 150 501 150 529C150 542.333 146 554 138 564C130 574 122.333 580.667 115 584C107.667 587.333 103.333 589 102 589L99 590C100.333 593.333 106.667 597.333 118 602C129.333 606.667 140.667 609 152 609L160 609C171.333 609 180 608.333 186 607C208 601 228.333 588.333 247 569C265.667 549.667 280 529 290 507C300 485 307.667 466.333 313 451C318.333 435.667 321 425.667 321 421L315 425C311 427.667 304.667 431.333 296 436C287.333 440.667 278.667 444.667 270 448C256.667 451.333 243.667 453 231 453C200.333 453 173.333 445.667 150 431C126.667 416.333 111.333 392.667 104 360C103.333 355.333 103 345 103 329C103 291 114.667 241.333 138 180C161.333 118.667 173 79.6667 173 63C173 62.3333 173 61.6667 173 61C173 55 173 51 173 49C173 47 171.667 44.6667 169 42C166.333 39.3333 162.667 38 158 38L154 38C138.667 38 124.667 44.3333 112 57C99.3333 69.6667 89.3333 83.3333 82 98C74.6667 112.667 69 126.667 65 140C61 153.333 58.3333 160.667 57 162C55.6667 163.333 50.3333 164 41 164L27 164C23 160 21 157 21 155Z" fill="currentColor" fill-rule="evenodd" opacity="1" stroke="currentColor" stroke-linecap="butt" stroke-linejoin="miter" stroke-width="0"/>
</svg>
