<svg width="12.624" height="12.3" stroke-miterlimit="10" style="fill-rule:nonzero;clip-rule:evenodd;stroke-linecap:round;stroke-linejoin:round;" version="1.1" viewBox="0 0 465 453" xml:space="preserve" xmlns="http://www.w3.org/2000/svg" xmlns:xlink="http://www.w3.org/1999/xlink">
  <path d="M347 104C340.333 104 322.667 100.333 294 93C265.333 85.6667 244.333 82 231 82C217.667 82 206.333 83.3333 197 86C187.667 88.6667 180 92 174 96C168 100 164 103.667 162 107C160 110.333 157.667 114 155 118L153 122C151 124 146 125 138 125C124 125 117 122.333 117 117C117 113.667 118 109 120 103C128.667 77 143 54.6667 163 36C183 17.3333 205 6 229 2C237 0.666667 242.667 0 246 0C262.667 0 277.667 5.66667 291 17C304.333 28.3333 317 39.3333 329 50C341 60.6667 353.667 66.3333 367 67C381.667 67 396.333 56 411 34C425.667 12 433.333 1 434 1C434.667 0.333333 439.667 0 449 0L462 0C466 4 468 6.66667 468 8C468 10.6667 466.333 15.3333 463 22C459.667 28.6667 455 35.6667 449 43C443 50.3333 437.333 57.6667 432 65C426.667 72.3333 422 78.6667 418 84L411 93C382.333 127 337 172 275 228C213 284 174.667 320 160 336L148 348L163 349C177.667 349 199 352.667 227 360C255 367.333 276 371 290 371C315.333 371 338.667 364.667 360 352C381.333 339.333 395.333 322.667 402 302C404.667 296 407 292.333 409 291C411 289.667 416 289 424 289C436.667 289 443 292.333 443 299C443 302.333 442.667 305.333 442 308C430.667 349.333 408.667 383.667 376 411C343.333 438.333 310.667 452.333 278 453C260.667 453 245.333 447.333 232 436C218.667 424.667 205.667 413.333 193 402C180.333 390.667 167.667 385 155 385C125.667 385 99.3333 405 76 445C72 450.333 66.3333 453 59 453L54 453L41 453C37 449 35 446 35 444C35 434 54.3333 405.333 93 358C119 328 163 284.667 225 228C287 171.333 325.333 135.333 340 120C348 109.333 350.333 104 347 104Z" fill="currentColor" fill-rule="evenodd" opacity="1" stroke="currentColor" stroke-linecap="butt" stroke-linejoin="miter" stroke-width="0"/>
</svg>
