<svg xmlns="http://www.w3.org/2000/svg" version="1.1" xmlns:xlink="http://www.w3.org/1999/xlink" xmlns:svgjs="http://svgjs.com/svgjs" width="15" height="15"><svg width="15" height="15" viewBox="0 0 15 15" fill="none" xmlns="http://www.w3.org/2000/svg">
<path fill-rule="evenodd" clip-rule="evenodd" d="M8.29578 1.80863C8.43399 1.80863 8.56603 1.86584 8.66055 1.96666L10.931 4.38845C11.1198 4.5899 11.1096 4.90632 10.9082 5.09519C10.7067 5.28405 10.3903 5.27384 10.2014 5.07239L8.79578 3.57302L8.79578 8.18825L12.0529 11.4454L11.9867 9.39124C11.9778 9.11524 12.1943 8.88428 12.4703 8.87538C12.7463 8.86648 12.9772 9.083 12.9862 9.359L13.0932 12.6769C13.0976 12.815 13.0447 12.9488 12.947 13.0466C12.8493 13.1443 12.7155 13.1972 12.5773 13.1928L9.25943 13.0857C8.98343 13.0768 8.76691 12.8459 8.77581 12.5699C8.78471 12.2939 9.01567 12.0773 9.29167 12.0862L11.3458 12.1525L8.13196 8.93864L3.76118 10.1098L5.57326 11.0795C5.81674 11.2098 5.90849 11.5128 5.7782 11.7562C5.64791 11.9997 5.34492 12.0915 5.10145 11.9612L2.17455 10.3949C2.0527 10.3297 1.96327 10.217 1.9275 10.0835C1.89173 9.94999 1.91281 9.80764 1.98574 9.69024L3.73737 6.87038C3.88308 6.63581 4.19136 6.56377 4.42593 6.70948C4.6605 6.85519 4.73254 7.16347 4.58683 7.39804L3.50236 9.14386L7.79578 7.99344L7.79578 3.57302L6.39013 5.07239C6.20126 5.27384 5.88484 5.28405 5.68339 5.09519C5.48193 4.90632 5.47173 4.5899 5.66059 4.38845L7.93101 1.96666C8.02554 1.86584 8.15758 1.80863 8.29578 1.80863Z" fill="black"></path>
</svg><style>@media (prefers-color-scheme: light) { :root { filter: none; } }
@media (prefers-color-scheme: dark) { :root { filter: invert(100%); } }
</style></svg>